<svg width="31" height="30" viewBox="0 0 31 30" fill="none" xmlns="http://www.w3.org/2000/svg">
<mask id="mask0_290_308" style="mask-type:alpha" maskUnits="userSpaceOnUse" x="0" y="0" width="31" height="30">
<rect x="0.5" width="30" height="30" fill="#D9D9D9"/>
</mask>
<g mask="url(#mask0_290_308)">
<path d="M15.5 26.25C13.9375 26.25 12.474 25.9531 11.1094 25.3594C9.74479 24.7656 8.55729 23.9635 7.54688 22.9531C6.53646 21.9427 5.73438 20.7552 5.14063 19.3906C4.54688 18.026 4.25 16.5625 4.25 15C4.25 13.4375 4.54688 11.974 5.14063 10.6094C5.73438 9.24479 6.53646 8.05729 7.54688 7.04688C8.55729 6.03646 9.74479 5.23438 11.1094 4.64063C12.474 4.04688 13.9375 3.75 15.5 3.75V6.25C13.0625 6.25 10.9948 7.09896 9.29688 8.79688C7.59896 10.4948 6.75 12.5625 6.75 15C6.75 17.4375 7.59896 19.5052 9.29688 21.2031C10.9948 22.901 13.0625 23.75 15.5 23.75V26.25ZM20.5 21.25L18.75 19.4688L21.9688 16.25H11.75V13.75H21.9688L18.75 10.5L20.5 8.75L26.75 15L20.5 21.25Z" fill="white"/>
</g>
</svg>
